<?xml version="1.0" encoding="utf-8"?>
<!-- Generator: Adobe Illustrator 26.3.1, SVG Export Plug-In . SVG Version: 6.00 Build 0)  -->
<svg version="1.1" id="Layer_1" xmlns="http://www.w3.org/2000/svg" xmlns:xlink="http://www.w3.org/1999/xlink" x="0px" y="0px"
	 viewBox="0 0 150 150" style="enable-background:new 0 0 150 150;" xml:space="preserve">
<style type="text/css">
	.st0{fill:#FFFFFF;}
</style>
<g>
	<path class="st0" d="M75,2.8c39.8,0,72.2,32.4,72.2,72.2s-32.4,72.2-72.2,72.2S2.8,114.8,2.8,75S35.2,2.8,75,2.8 M75,138.7
		c35.1,0,63.7-28.6,63.7-63.7S110.1,11.3,75,11.3S11.3,39.9,11.3,75S39.9,138.7,75,138.7 M75,0C33.6,0,0,33.6,0,75s33.6,75,75,75
		s75-33.6,75-75S116.4,0,75,0L75,0z M75,135.8c-33.6,0-60.8-27.3-60.8-60.8S41.4,14.2,75,14.2s60.8,27.3,60.8,60.8
		S108.6,135.8,75,135.8L75,135.8z"/>
</g>
<g>
	<path class="st0" d="M75.8,130.5v-21.4l4.5-4.3c0.4,0,1,0.1,1.7,0.1c2.6,0,7.8-0.5,12.3-3.7c5.4-3.8,8.4-10.3,9-19.1
		c0-0.4-0.1-0.9-0.4-1.2c-0.3-0.3-0.7-0.5-1.1-0.5c0,0,0,0,0,0c-0.5,0-13,0.1-19.7,7.8c-3.3,3.7-4.6,8.6-4,14.4l-2.3,2.2V77.2
		l4.3-4.1c0.4,0,1,0.1,1.7,0.1c0,0,0,0,0,0c2.6,0,7.8-0.5,12.3-3.7c5.4-3.8,8.4-10.3,9.1-19.2c0-0.4-0.1-0.9-0.4-1.2
		c-0.3-0.3-0.7-0.5-1.1-0.5h0c-0.5,0-13,0.1-19.8,7.8c-3.3,3.7-4.6,8.6-4,14.4l-2.1,2V50.9c4.2-2.8,6.7-6.5,7.3-10.8
		c1.4-9.8-7.4-19.4-7.7-19.8c-0.3-0.3-0.7-0.5-1.2-0.5c-0.5,0-0.9,0.2-1.2,0.6c-6.2,7.5-8.7,14.3-7.5,20.4c1.2,5.8,5.3,9,7.1,10.2
		v21.8l-2.1-2c0.6-5.8-0.7-10.7-4-14.4c-6.7-7.7-19.2-7.8-19.8-7.8h0c-0.4,0-0.9,0.2-1.1,0.5c-0.3,0.3-0.4,0.7-0.4,1.2
		c0.6,8.9,3.7,15.3,9.1,19.2c4.5,3.2,9.7,3.7,12.3,3.7c0.7,0,1.3,0,1.7-0.1l4.3,4.1v27.6l-2.3-2.2c0.6-5.8-0.7-10.7-4-14.4
		c-6.7-7.7-19.2-7.8-19.7-7.8h0c-0.4,0-0.9,0.2-1.1,0.5c-0.3,0.3-0.4,0.7-0.4,1.2c0.6,8.9,3.7,15.3,9,19.1c4.5,3.2,9.6,3.7,12.3,3.7
		c0.7,0,1.3,0,1.7-0.1l4.5,4.3v21.4L75.8,130.5z M84.4,90.2c4.4-5.1,12.2-6.3,15.6-6.6c-1.7,14.5-10.4,17.7-16.5,18.1l9.5-9.1
		c0.6-0.6,0.6-1.6,0-2.2c-0.6-0.6-1.6-0.6-2.2,0l-9.8,9.4C81.1,95.9,82.2,92.7,84.4,90.2z M84.3,58.4c4.4-5.1,12.2-6.4,15.7-6.7
		c-1.7,14.8-11.1,17.7-16.5,18.1l9.6-9.1c0.6-0.6,0.7-1.6,0.1-2.2c-0.6-0.6-1.6-0.7-2.2-0.1L81,68C81,64.2,82.1,61,84.3,58.4z
		 M57.6,58.5C57,57.9,56,58,55.4,58.6c-0.6,0.6-0.6,1.6,0.1,2.2l9.6,9.1c-5.4-0.4-14.8-3.3-16.5-18.1c3.4,0.3,11.2,1.6,15.7,6.7
		c2.2,2.5,3.3,5.7,3.3,9.5L57.6,58.5z M57.7,90.3c-0.6-0.6-1.6-0.6-2.2,0c-0.6,0.6-0.6,1.6,0,2.2l9.5,9.1
		c-6.1-0.4-14.8-3.6-16.5-18.1c3.4,0.3,11.2,1.5,15.6,6.6c2.2,2.5,3.3,5.7,3.3,9.5L57.7,90.3z M68.6,40.2c-1-4.7,0.9-10.2,5.6-16.3
		c2.2,2.9,6.6,9.5,5.8,15.9c-0.4,2.8-1.8,5.2-4.2,7.3v-9.4c0-0.9-0.7-1.6-1.6-1.6c-0.9,0-1.6,0.7-1.6,1.6v9.4
		C71.2,45.7,69.3,43.4,68.6,40.2z M74.3,133.6"/>
</g>
</svg>
